<?xml version="1.0" standalone="no"?><!DOCTYPE svg PUBLIC "-//W3C//DTD SVG 1.1//EN" "http://www.w3.org/Graphics/SVG/1.1/DTD/svg11.dtd"><svg xmlns:xlink="http://www.w3.org/1999/xlink" version="1.1" style="font-family:'lucida grande', 'lucida sans unicode', verdana, arial, helvetica, sans-serif;font-size:12px;" xmlns="http://www.w3.org/2000/svg" width="1300" height="900"><desc>Created with Highcharts 3.0.10</desc><defs><clipPath id="highcharts-7"><rect x="1" y="0" width="1176" height="750"></rect></clipPath></defs><rect x="0" y="0" width="1300" height="900" fill="#FFFFFF" class=" highcharts-background"></rect><g class="highcharts-grid" ></g><g class="highcharts-grid" ><path fill="none" d="M 113 37.5 L 1290 37.5" stroke="#C0C0C0" stroke-width="1" stroke-dasharray="1,3"  opacity="1"></path><path fill="none" d="M 113 92.5 L 1290 92.5" stroke="#C0C0C0" stroke-width="1" stroke-dasharray="1,3"  opacity="1"></path><path fill="none" d="M 113 145.5 L 1290 145.5" stroke="#C0C0C0" stroke-width="1" stroke-dasharray="1,3"  opacity="1"></path><path fill="none" d="M 113 199.5 L 1290 199.5" stroke="#C0C0C0" stroke-width="1" stroke-dasharray="1,3"  opacity="1"></path><path fill="none" d="M 113 253.5 L 1290 253.5" stroke="#C0C0C0" stroke-width="1" stroke-dasharray="1,3"  opacity="1"></path><path fill="none" d="M 113 306.5 L 1290 306.5" stroke="#C0C0C0" stroke-width="1" stroke-dasharray="1,3"  opacity="1"></path><path fill="none" d="M 113 360.5 L 1290 360.5" stroke="#C0C0C0" stroke-width="1" stroke-dasharray="1,3"  opacity="1"></path><path fill="none" d="M 113 414.5 L 1290 414.5" stroke="#C0C0C0" stroke-width="1" stroke-dasharray="1,3"  opacity="1"></path><path fill="none" d="M 113 467.5 L 1290 467.5" stroke="#C0C0C0" stroke-width="1" stroke-dasharray="1,3"  opacity="1"></path><path fill="none" d="M 113 521.5 L 1290 521.5" stroke="#C0C0C0" stroke-width="1" stroke-dasharray="1,3"  opacity="1"></path><path fill="none" d="M 113 574.5 L 1290 574.5" stroke="#C0C0C0" stroke-width="1" stroke-dasharray="1,3"  opacity="1"></path><path fill="none" d="M 113 628.5 L 1290 628.5" stroke="#C0C0C0" stroke-width="1" stroke-dasharray="1,3"  opacity="1"></path><path fill="none" d="M 113 682.5 L 1290 682.5" stroke="#C0C0C0" stroke-width="1" stroke-dasharray="1,3"  opacity="1"></path><path fill="none" d="M 113 735.5 L 1290 735.5" stroke="#C0C0C0" stroke-width="1" stroke-dasharray="1,3"  opacity="1"></path><path fill="none" d="M 113 789.5 L 1290 789.5" stroke="#C0C0C0" stroke-width="1" stroke-dasharray="1,3"  opacity="1"></path></g><g class="highcharts-axis" ><path fill="none" d="M 149.5 789 L 149.5 794" stroke="#C0D0E0" stroke-width="1" opacity="1"></path><path fill="none" d="M 167.5 789 L 167.5 794" stroke="#C0D0E0" stroke-width="1" opacity="1"></path><path fill="none" d="M 186.5 789 L 186.5 794" stroke="#C0D0E0" stroke-width="1" opacity="1"></path><path fill="none" d="M 204.5 789 L 204.5 794" stroke="#C0D0E0" stroke-width="1" opacity="1"></path><path fill="none" d="M 222.5 789 L 222.5 794" stroke="#C0D0E0" stroke-width="1" opacity="1"></path><path fill="none" d="M 241.5 789 L 241.5 794" stroke="#C0D0E0" stroke-width="1" opacity="1"></path><path fill="none" d="M 259.5 789 L 259.5 794" stroke="#C0D0E0" stroke-width="1" opacity="1"></path><path fill="none" d="M 278.5 789 L 278.5 794" stroke="#C0D0E0" stroke-width="1" opacity="1"></path><path fill="none" d="M 296.5 789 L 296.5 794" stroke="#C0D0E0" stroke-width="1" opacity="1"></path><path fill="none" d="M 314.5 789 L 314.5 794" stroke="#C0D0E0" stroke-width="1" opacity="1"></path><path fill="none" d="M 333.5 789 L 333.5 794" stroke="#C0D0E0" stroke-width="1" opacity="1"></path><path fill="none" d="M 351.5 789 L 351.5 794" stroke="#C0D0E0" stroke-width="1" opacity="1"></path><path fill="none" d="M 369.5 789 L 369.5 794" stroke="#C0D0E0" stroke-width="1" opacity="1"></path><path fill="none" d="M 388.5 789 L 388.5 794" stroke="#C0D0E0" stroke-width="1" opacity="1"></path><path fill="none" d="M 406.5 789 L 406.5 794" stroke="#C0D0E0" stroke-width="1" opacity="1"></path><path fill="none" d="M 425.5 789 L 425.5 794" stroke="#C0D0E0" stroke-width="1" opacity="1"></path><path fill="none" d="M 443.5 789 L 443.5 794" stroke="#C0D0E0" stroke-width="1" opacity="1"></path><path fill="none" d="M 461.5 789 L 461.5 794" stroke="#C0D0E0" stroke-width="1" opacity="1"></path><path fill="none" d="M 480.5 789 L 480.5 794" stroke="#C0D0E0" stroke-width="1" opacity="1"></path><path fill="none" d="M 498.5 789 L 498.5 794" stroke="#C0D0E0" stroke-width="1" opacity="1"></path><path fill="none" d="M 517.5 789 L 517.5 794" stroke="#C0D0E0" stroke-width="1" opacity="1"></path><path fill="none" d="M 535.5 789 L 535.5 794" stroke="#C0D0E0" stroke-width="1" opacity="1"></path><path fill="none" d="M 553.5 789 L 553.5 794" stroke="#C0D0E0" stroke-width="1" opacity="1"></path><path fill="none" d="M 572.5 789 L 572.5 794" stroke="#C0D0E0" stroke-width="1" opacity="1"></path><path fill="none" d="M 590.5 789 L 590.5 794" stroke="#C0D0E0" stroke-width="1" opacity="1"></path><path fill="none" d="M 609.5 789 L 609.5 794" stroke="#C0D0E0" stroke-width="1" opacity="1"></path><path fill="none" d="M 627.5 789 L 627.5 794" stroke="#C0D0E0" stroke-width="1" opacity="1"></path><path fill="none" d="M 645.5 789 L 645.5 794" stroke="#C0D0E0" stroke-width="1" opacity="1"></path><path fill="none" d="M 664.5 789 L 664.5 794" stroke="#C0D0E0" stroke-width="1" opacity="1"></path><path fill="none" d="M 682.5 789 L 682.5 794" stroke="#C0D0E0" stroke-width="1" opacity="1"></path><path fill="none" d="M 701.5 789 L 701.5 794" stroke="#C0D0E0" stroke-width="1" opacity="1"></path><path fill="none" d="M 719.5 789 L 719.5 794" stroke="#C0D0E0" stroke-width="1" opacity="1"></path><path fill="none" d="M 737.5 789 L 737.5 794" stroke="#C0D0E0" stroke-width="1" opacity="1"></path><path fill="none" d="M 756.5 789 L 756.5 794" stroke="#C0D0E0" stroke-width="1" opacity="1"></path><path fill="none" d="M 774.5 789 L 774.5 794" stroke="#C0D0E0" stroke-width="1" opacity="1"></path><path fill="none" d="M 792.5 789 L 792.5 794" stroke="#C0D0E0" stroke-width="1" opacity="1"></path><path fill="none" d="M 811.5 789 L 811.5 794" stroke="#C0D0E0" stroke-width="1" opacity="1"></path><path fill="none" d="M 829.5 789 L 829.5 794" stroke="#C0D0E0" stroke-width="1" opacity="1"></path><path fill="none" d="M 848.5 789 L 848.5 794" stroke="#C0D0E0" stroke-width="1" opacity="1"></path><path fill="none" d="M 866.5 789 L 866.5 794" stroke="#C0D0E0" stroke-width="1" opacity="1"></path><path fill="none" d="M 884.5 789 L 884.5 794" stroke="#C0D0E0" stroke-width="1" opacity="1"></path><path fill="none" d="M 903.5 789 L 903.5 794" stroke="#C0D0E0" stroke-width="1" opacity="1"></path><path fill="none" d="M 921.5 789 L 921.5 794" stroke="#C0D0E0" stroke-width="1" opacity="1"></path><path fill="none" d="M 940.5 789 L 940.5 794" stroke="#C0D0E0" stroke-width="1" opacity="1"></path><path fill="none" d="M 958.5 789 L 958.5 794" stroke="#C0D0E0" stroke-width="1" opacity="1"></path><path fill="none" d="M 976.5 789 L 976.5 794" stroke="#C0D0E0" stroke-width="1" opacity="1"></path><path fill="none" d="M 995.5 789 L 995.5 794" stroke="#C0D0E0" stroke-width="1" opacity="1"></path><path fill="none" d="M 1013.5 789 L 1013.5 794" stroke="#C0D0E0" stroke-width="1" opacity="1"></path><path fill="none" d="M 1032.5 789 L 1032.5 794" stroke="#C0D0E0" stroke-width="1" opacity="1"></path><path fill="none" d="M 1050.5 789 L 1050.5 794" stroke="#C0D0E0" stroke-width="1" opacity="1"></path><path fill="none" d="M 1068.5 789 L 1068.5 794" stroke="#C0D0E0" stroke-width="1" opacity="1"></path><path fill="none" d="M 1087.5 789 L 1087.5 794" stroke="#C0D0E0" stroke-width="1" opacity="1"></path><path fill="none" d="M 1105.5 789 L 1105.5 794" stroke="#C0D0E0" stroke-width="1" opacity="1"></path><path fill="none" d="M 1123.5 789 L 1123.5 794" stroke="#C0D0E0" stroke-width="1" opacity="1"></path><path fill="none" d="M 1142.5 789 L 1142.5 794" stroke="#C0D0E0" stroke-width="1" opacity="1"></path><path fill="none" d="M 1160.5 789 L 1160.5 794" stroke="#C0D0E0" stroke-width="1" opacity="1"></path><path fill="none" d="M 1179.5 789 L 1179.5 794" stroke="#C0D0E0" stroke-width="1" opacity="1"></path><path fill="none" d="M 1197.5 789 L 1197.5 794" stroke="#C0D0E0" stroke-width="1" opacity="1"></path><path fill="none" d="M 1215.5 789 L 1215.5 794" stroke="#C0D0E0" stroke-width="1" opacity="1"></path><path fill="none" d="M 1234.5 789 L 1234.5 794" stroke="#C0D0E0" stroke-width="1" opacity="1"></path><path fill="none" d="M 1252.5 789 L 1252.5 794" stroke="#C0D0E0" stroke-width="1" opacity="1"></path><path fill="none" d="M 1271.5 789 L 1271.5 794" stroke="#C0D0E0" stroke-width="1" opacity="1"></path><path fill="none" d="M 1290.5 789 L 1290.5 794" stroke="#C0D0E0" stroke-width="1" opacity="1"></path><path fill="none" d="M 130.5 789 L 130.5 794" stroke="#C0D0E0" stroke-width="1" opacity="1"></path><path fill="none" d="M 112.5 789 L 112.5 794" stroke="#C0D0E0" stroke-width="1"></path><path fill="none" d="M 113 789 L 1290 789" stroke="#C0D0E0" stroke-width="2"  visibility="visible"></path></g><g class="highcharts-axis" ><text x="23" y="413.5"  text-anchor="middle" transform="translate(0,0) rotate(270 23 413.5)" class=" highcharts-yaxis-title" style="color:#000000;font-weight:bold;font-family:calibri, verdana, arial, helvetica, sans-serif;background-color:#fff;font-size:8pt;fill:#000000;" visibility="visible"><tspan x="23">Productivity - Labor productivity (output per hour)</tspan></text><path fill="none" d="M 113 38 L 113 789" stroke="#C0D0E0" stroke-width="2"  visibility="visible"></path></g><g class="highcharts-series-group" ><g class="highcharts-series" visibility="visible"  transform="translate(113,38) scale(1 1)" clip-path="url(#highcharts-7)"><path fill="none" d="M 9.1953125 718.3422285714284 L 27.5859375 715.1021999999999 L 45.9765625 701.3267142857144 L 64.3671875 675.170457142857 L 82.7578125 679.6764571428572 L 101.1484375 642.9632857142858 L 119.5390625 642.4053999999999 L 137.9296875 623.1798000000001 L 156.3203125 628.7586571428571 L 174.7109375 601.5939142857144 L 193.1015625 591.9811142857143 L 211.4921875 568.3782571428573 L 229.8828125 534.3257714285714 L 248.2734375 528.4679714285716 L 266.6640625 512.1390857142856 L 285.0546875 515.4434857142859 L 303.4453125 496.4968285714285 L 321.8359375 465.6629142857143 L 340.2265625 430.451742857143 L 358.6171875 415.2815428571429 L 377.0078125 408.6298285714285 L 395.3984375 394.7685142857142 L 413.7890625 386.72208571428564 L 432.1796875 372.90368571428587 L 450.5703125 354.27888571428565 L 468.9609375 359.9435714285716 L 487.3515625 343.3571999999999 L 505.7421875 339.9455142857144 L 524.1328125 326.40605714285726 L 542.5234375 327.58619999999996 L 560.9140625 338.5293428571429 L 579.3046875 325.461942857143 L 597.6953125 325.09717142857136 L 616.0859375 308.25331428571434 L 634.4765625 285.1439714285715 L 652.8671875 279.0072285714286 L 671.2578125 297.3101714285713 L 689.6484375 277.50522857142874 L 708.0390625 272.39842857142844 L 726.4296875 284.0925714285714 L 744.8203125 268.10700000000014 L 763.2109375 227.96068571428566 L 781.6015625 193.2644857142859 L 799.9921875 166.9580285714287 L 818.3828125 158.28934285714286 L 836.7734375 149.77085714285727 L 855.1640625 137.1969714285716 L 873.5546875 130.3735999999999 L 891.9453125 149.08422857142853 L 910.3359375 142.1964857142857 L 928.7265625 147.98991428571446 L 947.1171875 130.60962857142874 L 965.5078125 132.11162857142858 L 983.8984375 120.86808571428571 L 1002.2890625 112.97185714285717 L 1020.6796875 125.3740857142858 L 1039.0703125 114.53822857142848 L 1057.4609375 108.22982857142858 L 1075.8515625 89.9912571428572 L 1094.2421875 73.91985714285704 L 1112.6328125 104.21734285714285 L 1131.0234375 87.84554285714273 L 1149.4140625 69.13491428571422 L 1167.8046875 82.3739714285714" stroke="#99C971" stroke-width="2"  stroke-linejoin="round" stroke-linecap="round"></path><path fill="none" d="M -0.8046875 718.3422285714284 L 9.1953125 718.3422285714284 L 27.5859375 715.1021999999999 L 45.9765625 701.3267142857144 L 64.3671875 675.170457142857 L 82.7578125 679.6764571428572 L 101.1484375 642.9632857142858 L 119.5390625 642.4053999999999 L 137.9296875 623.1798000000001 L 156.3203125 628.7586571428571 L 174.7109375 601.5939142857144 L 193.1015625 591.9811142857143 L 211.4921875 568.3782571428573 L 229.8828125 534.3257714285714 L 248.2734375 528.4679714285716 L 266.6640625 512.1390857142856 L 285.0546875 515.4434857142859 L 303.4453125 496.4968285714285 L 321.8359375 465.6629142857143 L 340.2265625 430.451742857143 L 358.6171875 415.2815428571429 L 377.0078125 408.6298285714285 L 395.3984375 394.7685142857142 L 413.7890625 386.72208571428564 L 432.1796875 372.90368571428587 L 450.5703125 354.27888571428565 L 468.9609375 359.9435714285716 L 487.3515625 343.3571999999999 L 505.7421875 339.9455142857144 L 524.1328125 326.40605714285726 L 542.5234375 327.58619999999996 L 560.9140625 338.5293428571429 L 579.3046875 325.461942857143 L 597.6953125 325.09717142857136 L 616.0859375 308.25331428571434 L 634.4765625 285.1439714285715 L 652.8671875 279.0072285714286 L 671.2578125 297.3101714285713 L 689.6484375 277.50522857142874 L 708.0390625 272.39842857142844 L 726.4296875 284.0925714285714 L 744.8203125 268.10700000000014 L 763.2109375 227.96068571428566 L 781.6015625 193.2644857142859 L 799.9921875 166.9580285714287 L 818.3828125 158.28934285714286 L 836.7734375 149.77085714285727 L 855.1640625 137.1969714285716 L 873.5546875 130.3735999999999 L 891.9453125 149.08422857142853 L 910.3359375 142.1964857142857 L 928.7265625 147.98991428571446 L 947.1171875 130.60962857142874 L 965.5078125 132.11162857142858 L 983.8984375 120.86808571428571 L 1002.2890625 112.97185714285717 L 1020.6796875 125.3740857142858 L 1039.0703125 114.53822857142848 L 1057.4609375 108.22982857142858 L 1075.8515625 89.9912571428572 L 1094.2421875 73.91985714285704 L 1112.6328125 104.21734285714285 L 1131.0234375 87.84554285714273 L 1149.4140625 69.13491428571422 L 1167.8046875 82.3739714285714 L 1177.8046875 82.3739714285714" stroke-linejoin="round" visibility="visible" stroke-opacity="0.0001" stroke="rgb(192,192,192)" stroke-width="22"  class=" highcharts-tracker" style=""></path></g><g class="highcharts-markers highcharts-tracker" visibility="visible"  transform="translate(113,38) scale(1 1)" style="" clip-path="none"></g></g><text x="650" y="25" text-anchor="middle" class="highcharts-title"  style="color:#000000;font-size:8pt;font-family:calibri, verdana, arial, helvetica, sans-serif;font-weight:bold;background-color:#fff;width:1236px;fill:#000000;"><tspan x="650">Productivity : Labor Productivity - Business</tspan></text><g class="highcharts-legend"  transform="translate(602,855)"><g ><g><g class="highcharts-legend-item"  transform="translate(8,3)"><path fill="none" d="M 0 10 L 16 10" stroke="#99C971" stroke-width="2"></path><text x="21" y="13" style="color:#274b6d;font-size:10px;cursor:pointer;fill:#274b6d;" text-anchor="start" ><tspan x="21">PRS84006093</tspan></text></g></g></g></g><g class="highcharts-axis-labels highcharts-xaxis-labels" ><text x="122.1953125" y="803" text-anchor="middle" style="width:1px;color:#666;cursor:default;font-size:11px;fill:#666;" opacity="1"><tspan x="122.1953125">Qtr1</tspan><tspan dy="15" x="122.1953125">1999</tspan></text><text x="140.5859375" y="830.96875" text-anchor="middle" style="width:1px;color:#666;cursor:default;font-size:11px;fill:#666;" opacity="1"><tspan x="140.5859375">Qtr2</tspan><tspan dy="15" x="140.5859375">1999</tspan></text><text x="158.9765625" y="803" text-anchor="middle" style="width:1px;color:#666;cursor:default;font-size:11px;fill:#666;" opacity="1"><tspan x="158.9765625">Qtr3</tspan><tspan dy="15" x="158.9765625">1999</tspan></text><text x="177.3671875" y="830.96875" text-anchor="middle" style="width:1px;color:#666;cursor:default;font-size:11px;fill:#666;" opacity="1"><tspan x="177.3671875">Qtr4</tspan><tspan dy="15" x="177.3671875">1999</tspan></text><text x="195.7578125" y="803" text-anchor="middle" style="width:1px;color:#666;cursor:default;font-size:11px;fill:#666;" opacity="1"><tspan x="195.7578125">Qtr1</tspan><tspan dy="15" x="195.7578125">2000</tspan></text><text x="214.1484375" y="830.96875" text-anchor="middle" style="width:1px;color:#666;cursor:default;font-size:11px;fill:#666;" opacity="1"><tspan x="214.1484375">Qtr2</tspan><tspan dy="15" x="214.1484375">2000</tspan></text><text x="232.5390625" y="803" text-anchor="middle" style="width:1px;color:#666;cursor:default;font-size:11px;fill:#666;" opacity="1"><tspan x="232.5390625">Qtr3</tspan><tspan dy="15" x="232.5390625">2000</tspan></text><text x="250.9296875" y="830.96875" text-anchor="middle" style="width:1px;color:#666;cursor:default;font-size:11px;fill:#666;" opacity="1"><tspan x="250.9296875">Qtr4</tspan><tspan dy="15" x="250.9296875">2000</tspan></text><text x="269.3203125" y="803" text-anchor="middle" style="width:1px;color:#666;cursor:default;font-size:11px;fill:#666;" opacity="1"><tspan x="269.3203125">Qtr1</tspan><tspan dy="15" x="269.3203125">2001</tspan></text><text x="287.7109375" y="830.96875" text-anchor="middle" style="width:1px;color:#666;cursor:default;font-size:11px;fill:#666;" opacity="1"><tspan x="287.7109375">Qtr2</tspan><tspan dy="15" x="287.7109375">2001</tspan></text><text x="306.1015625" y="803" text-anchor="middle" style="width:1px;color:#666;cursor:default;font-size:11px;fill:#666;" opacity="1"><tspan x="306.1015625">Qtr3</tspan><tspan dy="15" x="306.1015625">2001</tspan></text><text x="324.4921875" y="830.96875" text-anchor="middle" style="width:1px;color:#666;cursor:default;font-size:11px;fill:#666;" opacity="1"><tspan x="324.4921875">Qtr4</tspan><tspan dy="15" x="324.4921875">2001</tspan></text><text x="342.8828125" y="803" text-anchor="middle" style="width:1px;color:#666;cursor:default;font-size:11px;fill:#666;" opacity="1"><tspan x="342.8828125">Qtr1</tspan><tspan dy="15" x="342.8828125">2002</tspan></text><text x="361.2734375" y="830.96875" text-anchor="middle" style="width:1px;color:#666;cursor:default;font-size:11px;fill:#666;" opacity="1"><tspan x="361.2734375">Qtr2</tspan><tspan dy="15" x="361.2734375">2002</tspan></text><text x="379.6640625" y="803" text-anchor="middle" style="width:1px;color:#666;cursor:default;font-size:11px;fill:#666;" opacity="1"><tspan x="379.6640625">Qtr3</tspan><tspan dy="15" x="379.6640625">2002</tspan></text><text x="398.0546875" y="830.96875" text-anchor="middle" style="width:1px;color:#666;cursor:default;font-size:11px;fill:#666;" opacity="1"><tspan x="398.0546875">Qtr4</tspan><tspan dy="15" x="398.0546875">2002</tspan></text><text x="416.4453125" y="803" text-anchor="middle" style="width:1px;color:#666;cursor:default;font-size:11px;fill:#666;" opacity="1"><tspan x="416.4453125">Qtr1</tspan><tspan dy="15" x="416.4453125">2003</tspan></text><text x="434.8359375" y="830.96875" text-anchor="middle" style="width:1px;color:#666;cursor:default;font-size:11px;fill:#666;" opacity="1"><tspan x="434.8359375">Qtr2</tspan><tspan dy="15" x="434.8359375">2003</tspan></text><text x="453.2265625" y="803" text-anchor="middle" style="width:1px;color:#666;cursor:default;font-size:11px;fill:#666;" opacity="1"><tspan x="453.2265625">Qtr3</tspan><tspan dy="15" x="453.2265625">2003</tspan></text><text x="471.6171875" y="830.96875" text-anchor="middle" style="width:1px;color:#666;cursor:default;font-size:11px;fill:#666;" opacity="1"><tspan x="471.6171875">Qtr4</tspan><tspan dy="15" x="471.6171875">2003</tspan></text><text x="490.0078125" y="803" text-anchor="middle" style="width:1px;color:#666;cursor:default;font-size:11px;fill:#666;" opacity="1"><tspan x="490.0078125">Qtr1</tspan><tspan dy="15" x="490.0078125">2004</tspan></text><text x="508.3984375" y="830.96875" text-anchor="middle" style="width:1px;color:#666;cursor:default;font-size:11px;fill:#666;" opacity="1"><tspan x="508.3984375">Qtr2</tspan><tspan dy="15" x="508.3984375">2004</tspan></text><text x="526.7890625" y="803" text-anchor="middle" style="width:1px;color:#666;cursor:default;font-size:11px;fill:#666;" opacity="1"><tspan x="526.7890625">Qtr3</tspan><tspan dy="15" x="526.7890625">2004</tspan></text><text x="545.1796875" y="830.96875" text-anchor="middle" style="width:1px;color:#666;cursor:default;font-size:11px;fill:#666;" opacity="1"><tspan x="545.1796875">Qtr4</tspan><tspan dy="15" x="545.1796875">2004</tspan></text><text x="563.5703125" y="803" text-anchor="middle" style="width:1px;color:#666;cursor:default;font-size:11px;fill:#666;" opacity="1"><tspan x="563.5703125">Qtr1</tspan><tspan dy="15" x="563.5703125">2005</tspan></text><text x="581.9609375" y="830.96875" text-anchor="middle" style="width:1px;color:#666;cursor:default;font-size:11px;fill:#666;" opacity="1"><tspan x="581.9609375">Qtr2</tspan><tspan dy="15" x="581.9609375">2005</tspan></text><text x="600.3515625" y="803" text-anchor="middle" style="width:1px;color:#666;cursor:default;font-size:11px;fill:#666;" opacity="1"><tspan x="600.3515625">Qtr3</tspan><tspan dy="15" x="600.3515625">2005</tspan></text><text x="618.7421875" y="830.96875" text-anchor="middle" style="width:1px;color:#666;cursor:default;font-size:11px;fill:#666;" opacity="1"><tspan x="618.7421875">Qtr4</tspan><tspan dy="15" x="618.7421875">2005</tspan></text><text x="637.1328125" y="803" text-anchor="middle" style="width:1px;color:#666;cursor:default;font-size:11px;fill:#666;" opacity="1"><tspan x="637.1328125">Qtr1</tspan><tspan dy="15" x="637.1328125">2006</tspan></text><text x="655.5234375" y="830.96875" text-anchor="middle" style="width:1px;color:#666;cursor:default;font-size:11px;fill:#666;" opacity="1"><tspan x="655.5234375">Qtr2</tspan><tspan dy="15" x="655.5234375">2006</tspan></text><text x="673.9140625" y="803" text-anchor="middle" style="width:1px;color:#666;cursor:default;font-size:11px;fill:#666;" opacity="1"><tspan x="673.9140625">Qtr3</tspan><tspan dy="15" x="673.9140625">2006</tspan></text><text x="692.3046875" y="830.96875" text-anchor="middle" style="width:1px;color:#666;cursor:default;font-size:11px;fill:#666;" opacity="1"><tspan x="692.3046875">Qtr4</tspan><tspan dy="15" x="692.3046875">2006</tspan></text><text x="710.6953125" y="803" text-anchor="middle" style="width:1px;color:#666;cursor:default;font-size:11px;fill:#666;" opacity="1"><tspan x="710.6953125">Qtr1</tspan><tspan dy="15" x="710.6953125">2007</tspan></text><text x="729.0859375" y="830.96875" text-anchor="middle" style="width:1px;color:#666;cursor:default;font-size:11px;fill:#666;" opacity="1"><tspan x="729.0859375">Qtr2</tspan><tspan dy="15" x="729.0859375">2007</tspan></text><text x="747.4765625" y="803" text-anchor="middle" style="width:1px;color:#666;cursor:default;font-size:11px;fill:#666;" opacity="1"><tspan x="747.4765625">Qtr3</tspan><tspan dy="15" x="747.4765625">2007</tspan></text><text x="765.8671875" y="830.96875" text-anchor="middle" style="width:1px;color:#666;cursor:default;font-size:11px;fill:#666;" opacity="1"><tspan x="765.8671875">Qtr4</tspan><tspan dy="15" x="765.8671875">2007</tspan></text><text x="784.2578125" y="803" text-anchor="middle" style="width:1px;color:#666;cursor:default;font-size:11px;fill:#666;" opacity="1"><tspan x="784.2578125">Qtr1</tspan><tspan dy="15" x="784.2578125">2008</tspan></text><text x="802.6484375" y="830.96875" text-anchor="middle" style="width:1px;color:#666;cursor:default;font-size:11px;fill:#666;" opacity="1"><tspan x="802.6484375">Qtr2</tspan><tspan dy="15" x="802.6484375">2008</tspan></text><text x="821.0390625" y="803" text-anchor="middle" style="width:1px;color:#666;cursor:default;font-size:11px;fill:#666;" opacity="1"><tspan x="821.0390625">Qtr3</tspan><tspan dy="15" x="821.0390625">2008</tspan></text><text x="839.4296875" y="830.96875" text-anchor="middle" style="width:1px;color:#666;cursor:default;font-size:11px;fill:#666;" opacity="1"><tspan x="839.4296875">Qtr4</tspan><tspan dy="15" x="839.4296875">2008</tspan></text><text x="857.8203125" y="803" text-anchor="middle" style="width:1px;color:#666;cursor:default;font-size:11px;fill:#666;" opacity="1"><tspan x="857.8203125">Qtr1</tspan><tspan dy="15" x="857.8203125">2009</tspan></text><text x="876.2109375" y="830.96875" text-anchor="middle" style="width:1px;color:#666;cursor:default;font-size:11px;fill:#666;" opacity="1"><tspan x="876.2109375">Qtr2</tspan><tspan dy="15" x="876.2109375">2009</tspan></text><text x="894.6015625" y="803" text-anchor="middle" style="width:1px;color:#666;cursor:default;font-size:11px;fill:#666;" opacity="1"><tspan x="894.6015625">Qtr3</tspan><tspan dy="15" x="894.6015625">2009</tspan></text><text x="912.9921875" y="830.96875" text-anchor="middle" style="width:1px;color:#666;cursor:default;font-size:11px;fill:#666;" opacity="1"><tspan x="912.9921875">Qtr4</tspan><tspan dy="15" x="912.9921875">2009</tspan></text><text x="931.3828125" y="803" text-anchor="middle" style="width:1px;color:#666;cursor:default;font-size:11px;fill:#666;" opacity="1"><tspan x="931.3828125">Qtr1</tspan><tspan dy="15" x="931.3828125">2010</tspan></text><text x="949.7734375" y="830.96875" text-anchor="middle" style="width:1px;color:#666;cursor:default;font-size:11px;fill:#666;" opacity="1"><tspan x="949.7734375">Qtr2</tspan><tspan dy="15" x="949.7734375">2010</tspan></text><text x="968.1640625" y="803" text-anchor="middle" style="width:1px;color:#666;cursor:default;font-size:11px;fill:#666;" opacity="1"><tspan x="968.1640625">Qtr3</tspan><tspan dy="15" x="968.1640625">2010</tspan></text><text x="986.5546875" y="830.96875" text-anchor="middle" style="width:1px;color:#666;cursor:default;font-size:11px;fill:#666;" opacity="1"><tspan x="986.5546875">Qtr4</tspan><tspan dy="15" x="986.5546875">2010</tspan></text><text x="1004.9453125" y="803" text-anchor="middle" style="width:1px;color:#666;cursor:default;font-size:11px;fill:#666;" opacity="1"><tspan x="1004.9453125">Qtr1</tspan><tspan dy="15" x="1004.9453125">2011</tspan></text><text x="1023.3359375" y="830.96875" text-anchor="middle" style="width:1px;color:#666;cursor:default;font-size:11px;fill:#666;" opacity="1"><tspan x="1023.3359375">Qtr2</tspan><tspan dy="15" x="1023.3359375">2011</tspan></text><text x="1041.7265625" y="803" text-anchor="middle" style="width:1px;color:#666;cursor:default;font-size:11px;fill:#666;" opacity="1"><tspan x="1041.7265625">Qtr3</tspan><tspan dy="15" x="1041.7265625">2011</tspan></text><text x="1060.1171875" y="830.96875" text-anchor="middle" style="width:1px;color:#666;cursor:default;font-size:11px;fill:#666;" opacity="1"><tspan x="1060.1171875">Qtr4</tspan><tspan dy="15" x="1060.1171875">2011</tspan></text><text x="1078.5078125" y="803" text-anchor="middle" style="width:1px;color:#666;cursor:default;font-size:11px;fill:#666;" opacity="1"><tspan x="1078.5078125">Qtr1</tspan><tspan dy="15" x="1078.5078125">2012</tspan></text><text x="1096.8984375" y="830.96875" text-anchor="middle" style="width:1px;color:#666;cursor:default;font-size:11px;fill:#666;" opacity="1"><tspan x="1096.8984375">Qtr2</tspan><tspan dy="15" x="1096.8984375">2012</tspan></text><text x="1115.2890625" y="803" text-anchor="middle" style="width:1px;color:#666;cursor:default;font-size:11px;fill:#666;" opacity="1"><tspan x="1115.2890625">Qtr3</tspan><tspan dy="15" x="1115.2890625">2012</tspan></text><text x="1133.6796875" y="830.96875" text-anchor="middle" style="width:1px;color:#666;cursor:default;font-size:11px;fill:#666;" opacity="1"><tspan x="1133.6796875">Qtr4</tspan><tspan dy="15" x="1133.6796875">2012</tspan></text><text x="1152.0703125" y="803" text-anchor="middle" style="width:1px;color:#666;cursor:default;font-size:11px;fill:#666;" opacity="1"><tspan x="1152.0703125">Qtr1</tspan><tspan dy="15" x="1152.0703125">2013</tspan></text><text x="1170.4609375" y="830.96875" text-anchor="middle" style="width:1px;color:#666;cursor:default;font-size:11px;fill:#666;" opacity="1"><tspan x="1170.4609375">Qtr2</tspan><tspan dy="15" x="1170.4609375">2013</tspan></text><text x="1188.8515625" y="803" text-anchor="middle" style="width:1px;color:#666;cursor:default;font-size:11px;fill:#666;" opacity="1"><tspan x="1188.8515625">Qtr3</tspan><tspan dy="15" x="1188.8515625">2013</tspan></text><text x="1207.2421875" y="830.96875" text-anchor="middle" style="width:1px;color:#666;cursor:default;font-size:11px;fill:#666;" opacity="1"><tspan x="1207.2421875">Qtr4</tspan><tspan dy="15" x="1207.2421875">2013</tspan></text><text x="1225.6328125" y="803" text-anchor="middle" style="width:1px;color:#666;cursor:default;font-size:11px;fill:#666;" opacity="1"><tspan x="1225.6328125">Qtr1</tspan><tspan dy="15" x="1225.6328125">2014</tspan></text><text x="1244.0234375" y="830.96875" text-anchor="middle" style="width:1px;color:#666;cursor:default;font-size:11px;fill:#666;" opacity="1"><tspan x="1244.0234375">Qtr2</tspan><tspan dy="15" x="1244.0234375">2014</tspan></text><text x="1262.4140625" y="803" text-anchor="middle" style="width:1px;color:#666;cursor:default;font-size:11px;fill:#666;" opacity="1"><tspan x="1262.4140625">Qtr3</tspan><tspan dy="15" x="1262.4140625">2014</tspan></text><text x="1280.8046875" y="830.96875" text-anchor="middle" style="width:1px;color:#666;cursor:default;font-size:11px;fill:#666;" opacity="1"><tspan x="1280.8046875">Qtr4</tspan><tspan dy="15" x="1280.8046875">2014</tspan></text></g><g class="highcharts-axis-labels highcharts-yaxis-labels" ><text x="105" y="794.515625" text-anchor="end" style="width:409px;color:#666;cursor:default;font-size:11px;fill:#666;" opacity="1"><tspan x="105">75</tspan></text><text x="105" y="740.8727678571429" text-anchor="end" style="width:409px;color:#666;cursor:default;font-size:11px;fill:#666;" opacity="1"><tspan x="105">77.5</tspan></text><text x="105" y="687.2299107142858" text-anchor="end" style="width:409px;color:#666;cursor:default;font-size:11px;fill:#666;" opacity="1"><tspan x="105">80</tspan></text><text x="105" y="633.5870535714286" text-anchor="end" style="width:409px;color:#666;cursor:default;font-size:11px;fill:#666;" opacity="1"><tspan x="105">82.5</tspan></text><text x="105" y="579.9441964285714" text-anchor="end" style="width:409px;color:#666;cursor:default;font-size:11px;fill:#666;" opacity="1"><tspan x="105">85</tspan></text><text x="105" y="526.3013392857143" text-anchor="end" style="width:409px;color:#666;cursor:default;font-size:11px;fill:#666;" opacity="1"><tspan x="105">87.5</tspan></text><text x="105" y="472.6584821428571" text-anchor="end" style="width:409px;color:#666;cursor:default;font-size:11px;fill:#666;" opacity="1"><tspan x="105">90</tspan></text><text x="105" y="419.015625" text-anchor="end" style="width:409px;color:#666;cursor:default;font-size:11px;fill:#666;" opacity="1"><tspan x="105">92.5</tspan></text><text x="105" y="365.3727678571429" text-anchor="end" style="width:409px;color:#666;cursor:default;font-size:11px;fill:#666;" opacity="1"><tspan x="105">95</tspan></text><text x="105" y="311.7299107142858" text-anchor="end" style="width:409px;color:#666;cursor:default;font-size:11px;fill:#666;" opacity="1"><tspan x="105">97.5</tspan></text><text x="105" y="258.08705357142867" text-anchor="end" style="width:409px;color:#666;cursor:default;font-size:11px;fill:#666;" opacity="1"><tspan x="105">100</tspan></text><text x="105" y="204.44419642857144" text-anchor="end" style="width:409px;color:#666;cursor:default;font-size:11px;fill:#666;" opacity="1"><tspan x="105">102.5</tspan></text><text x="105" y="150.80133928571433" text-anchor="end" style="width:409px;color:#666;cursor:default;font-size:11px;fill:#666;" opacity="1"><tspan x="105">105</tspan></text><text x="105" y="97.15848214285722" text-anchor="end" style="width:409px;color:#666;cursor:default;font-size:11px;fill:#666;" opacity="1"><tspan x="105">107.5</tspan></text><text x="105" y="43.515625" text-anchor="end" style="width:409px;color:#666;cursor:default;font-size:11px;fill:#666;" opacity="1"><tspan x="105">110</tspan></text></g><g class="highcharts-tooltip"  style="cursor:default;padding:0;white-space:nowrap;padding-right:10px;" transform="translate(0,-9999)"><rect x="0.5" y="0.5" width="16" height="16" fill="none" rx="3" ry="3"  stroke="black" stroke-opacity="0.049999999999999996" stroke-width="5" transform="translate(1, 1)"></rect><rect x="0.5" y="0.5" width="16" height="16" fill="none" rx="3" ry="3"  stroke="black" stroke-opacity="0.09999999999999999" stroke-width="3" transform="translate(1, 1)"></rect><rect x="0.5" y="0.5" width="16" height="16" fill="none" rx="3" ry="3"  stroke="black" stroke-opacity="0.15" stroke-width="1" transform="translate(1, 1)"></rect><rect x="0.5" y="0.5" width="16" height="16" fill="#FCFFC5" rx="3" ry="3"></rect><text x="8" y="21"  style="font-size:12px;font-family:calibri, verdana, arial, helvetica, sans-serif;color:#000000;fill:#000000;"></text></g><text x="10" y="885" text-anchor="start"  style="cursor:default;color:#000000;font-size:9px;fill:#000000;"><tspan x="10">Click and drag in the plot area to zoom in. Hover over chart to view data.</tspan><tspan x="10" dy="13">Source: U.S. Bureau of Labor Statistics.</tspan></text></svg>